<?xml version="1.0" encoding="UTF-8"?>
<svg width="22px" height="17px" viewBox="0 0 22 17" version="1.1" xmlns="http://www.w3.org/2000/svg" xmlns:xlink="http://www.w3.org/1999/xlink">
    <!-- Generator: Sketch 53.2 (72643) - https://sketchapp.com -->
    <title>fireOutline</title>
    <desc>Created with Sketch.</desc>
    <g id="Page-1" stroke="none" stroke-width="1" fill="none" fill-rule="evenodd">
        <g id="fireOutline" transform="translate(0.621723, 0.403246)">
            <path d="M17.7187832,10.9104153 C17.5545962,14.8317098 14.3249862,17.9606613 10.36335,17.9606613 C6.29666865,17.9606613 3.00000517,14.553156 3.00000517,10.5973165 C3.00000517,10.0685656 2.99052682,9.01184732 3.78333973,7.22897787 C4.25780547,6.16199787 4.55539427,5.49169849 4.72334119,4.8789742 C4.81561801,4.54221867 4.99507995,4.00720117 5.50667575,4.8789742 C5.80833789,5.39299834 5.82000958,6.13230949 5.82000958,6.13230949 C5.82000958,6.13230949 6.94237133,5.27103315 7.70001251,3.62563891 C8.81070258,1.21351681 7.9245162,-0.228367114 7.62167906,-1.23103535 C7.51686889,-1.57789589 7.45106879,-2.20127353 8.17001325,-1.93603645 C8.90258772,-1.66570769 10.8393041,-0.309990575 11.8516857,1.11896832 C13.2965463,3.15837984 13.8100221,5.11397457 13.8100221,5.11397457 C13.8100221,5.11397457 14.2726594,4.53979034 14.4366897,3.93897273 C14.6219483,3.26052667 14.62469,2.58858229 15.2199459,3.31238342 C15.7860618,4.00069949 16.6268148,5.29421985 17.1000272,6.52397677 C17.9592669,8.75718526 17.7187832,10.9104153 17.7187832,10.9104153 Z" id="path-1-copy" stroke="#000000" stroke-width="0.5" transform="translate(10.374878, 7.980331) rotate(-90.000000) translate(-10.374878, -7.980331) "></path>
            <path d="M14.1539827,14.1929795 C11.34189,14.1929795 9.06230808,11.9133976 9.06230808,9.10130484 C9.06230808,7.40452386 9.74608081,6.37436058 11.1691647,4.97736173 C12.0803395,4.082872 12.9331558,2.98424529 13.2956047,2.23616078 C13.3669665,2.08889389 13.5293517,1.32146102 14.155471,2.22002409 C14.4839232,2.69127816 14.998809,3.52936781 15.3289845,4.24463059 C15.8981554,5.47783418 16.0339856,6.67296772 16.0339856,6.67296772 C16.0339856,6.67296772 16.5917982,6.34428054 16.9739871,5.49796588 C17.0972056,5.22520879 17.346306,4.19261717 18.0426904,5.22505212 C18.5536596,5.98269331 19.2556057,7.3449121 19.2456573,9.10130484 C19.2456573,11.9133976 16.9659971,14.1929795 14.1539827,14.1929795 Z" id="path-2-copy" stroke="#000000" stroke-width="0.5" transform="translate(14.154035, 7.991806) rotate(-90.000000) translate(-14.154035, -7.991806) "></path>
            <path d="M17.6731068,5.23142334 C18.3976913,5.23142334 18.3976913,6.57319711 19.3181094,8.36476157 C19.9309903,9.55770177 19.0142539,10.7930987 17.6731068,10.7930987 C16.3319597,10.7930987 15.636437,9.70590867 15.636437,8.36476157 C15.636437,7.02369281 16.9485223,5.23142334 17.6731068,5.23142334 Z" id="path-3-copy" fill="#000000" transform="translate(17.574371, 8.012261) rotate(-90.000000) translate(-17.574371, -8.012261) "></path>
        </g>
    </g>
</svg>