<?xml version="1.0" encoding="UTF-8"?>
<svg width="800px" height="591px" viewBox="0 0 800 591" version="1.1" xmlns="http://www.w3.org/2000/svg" xmlns:xlink="http://www.w3.org/1999/xlink">
    <!-- Generator: Sketch 53.2 (72643) - https://sketchapp.com -->
    <title>Group</title>
    <desc>Created with Sketch.</desc>
    <defs>
        <linearGradient x1="49.9967274%" y1="100.073779%" x2="49.9967274%" y2="0.0755660083%" id="linearGradient-1">
            <stop stop-color="#8EC2FF" offset="0%"></stop>
            <stop stop-color="#DBEBFF" offset="100%"></stop>
        </linearGradient>
    </defs>
    <g id="Page-1" stroke="none" stroke-width="1" fill="none" fill-rule="evenodd">
        <g id="Group" transform="translate(-0.651610, -0.348390)">
            <path d="M694.487266,413.062132 C687.91158,570.109976 558.565697,695.424485 399.902168,695.424485 C237.03158,695.424485 105.000207,558.953897 105.000207,400.522525 C105.000207,379.346054 104.620599,337.024485 136.372756,265.620564 C155.375109,222.888015 167.29354,196.042525 174.019815,171.502917 C177.715501,158.015858 184.902952,136.588407 205.392364,171.502917 C217.473933,192.089583 217.941383,221.698995 217.941383,221.698995 C217.941383,221.698995 262.891972,187.204877 293.235501,121.306838 C337.718638,24.7013481 302.226874,-33.0461029 290.098246,-73.2029657 C285.900599,-87.0947304 283.265305,-112.061005 312.059031,-101.43826 C341.398638,-90.6115931 418.964129,-36.3151225 459.510011,20.9146814 C517.376678,102.593113 537.941383,180.914681 537.941383,180.914681 C537.941383,180.914681 556.470011,157.918603 563.039423,133.855858 C570.459031,106.684093 570.568834,79.7727206 594.408834,108.760956 C617.081776,136.328015 650.753933,188.133505 669.706089,237.38527 C704.118638,326.82527 694.487266,413.062132 694.487266,413.062132 Z" id="path-1-copy" fill="url(#linearGradient-1)" transform="translate(400.363853, 295.712243) rotate(-90.000000) translate(-400.363853, -295.712243) "></path>
            <path d="M551.717007,544.528828 C439.092693,544.528828 347.795439,453.231573 347.795439,340.607259 C347.795439,272.651181 375.180537,231.393141 432.175046,175.443337 C468.667595,139.619024 502.822889,95.6190237 517.338968,65.6582394 C520.197007,59.7602002 526.700537,29.0245139 551.776615,65.0119649 C564.931125,83.8856904 585.552301,117.451181 598.775831,146.097455 C621.571125,195.487259 627.011125,243.352357 627.011125,243.352357 C627.011125,243.352357 649.351517,230.188435 664.658184,196.293534 C669.593086,185.369612 679.569556,144.014318 707.459752,185.363337 C727.924066,215.706867 756.037007,270.26373 755.638576,340.607259 C755.638576,453.231573 664.338184,544.528828 551.717007,544.528828 Z" id="path-2-copy" fill="#87BEFF" transform="translate(551.719101, 296.171833) rotate(-90.000000) translate(-551.719101, -296.171833) "></path>
            <path d="M692.657928,185.618505 C721.677535,185.618505 721.677535,239.356544 758.540281,311.108701 C783.086163,358.885956 746.370869,408.363603 692.657928,408.363603 C638.944986,408.363603 611.0893,364.821642 611.0893,311.108701 C611.0893,257.398897 663.63832,185.618505 692.657928,185.618505 Z" id="path-3-copy" fill="#449AFF" transform="translate(688.703546, 296.991054) rotate(-90.000000) translate(-688.703546, -296.991054) "></path>
        </g>
    </g>
</svg>